<svg width="197" height="197" viewBox="0 0 197 197" fill="none" xmlns="http://www.w3.org/2000/svg">
<path d="M141.594 86.1875V73.875H55.4063V86.1875H86.1876V103.019L62.3752 144.696L73.0625 150.803L95.9145 110.812H101.086L123.938 150.803L134.625 144.696L110.813 103.019V86.1875H141.594Z" fill="white"/>
<path d="M98.5 67.7188C105.3 67.7188 110.812 62.2063 110.812 55.4062C110.812 48.6062 105.3 43.0938 98.5 43.0938C91.7 43.0938 86.1875 48.6062 86.1875 55.4062C86.1875 62.2063 91.7 67.7188 98.5 67.7188Z" fill="white"/>
<path d="M98.5 184.688C81.4537 184.688 64.7902 179.633 50.6168 170.162C36.4433 160.692 25.3964 147.231 18.8731 131.483C12.3498 115.734 10.643 98.4044 13.9685 81.6857C17.2941 64.967 25.5027 49.6098 37.5562 37.5563C49.6097 25.5027 64.9669 17.2942 81.6856 13.9686C98.4044 10.643 115.734 12.3498 131.483 18.8732C147.231 25.3965 160.692 36.4434 170.162 50.6168C179.633 64.7903 184.687 81.4538 184.687 98.5C184.662 121.35 175.573 143.258 159.415 159.415C143.258 175.573 121.35 184.662 98.5 184.688ZM98.5 24.625C83.8889 24.625 69.6059 28.9577 57.4572 37.0752C45.3085 45.1927 35.8398 56.7304 30.2484 70.2293C24.6569 83.7282 23.194 98.582 26.0445 112.912C28.8949 127.243 35.9308 140.406 46.2625 150.738C56.5941 161.069 69.7573 168.105 84.0877 170.956C98.418 173.806 113.272 172.343 126.771 166.752C140.27 161.16 151.807 151.691 159.925 139.543C168.042 127.394 172.375 113.111 172.375 98.5C172.353 78.914 164.562 60.1366 150.713 46.2872C136.863 32.4378 118.086 24.6474 98.5 24.625Z" fill="white"/>
</svg>
