<svg width="202" height="202" viewBox="0 0 202 202" fill="none" xmlns="http://www.w3.org/2000/svg">
<path d="M112.229 34.545C116.788 35.3489 119.832 39.6963 119.028 44.2552L98.6508 159.821C97.847 164.38 93.4992 167.424 88.9402 166.62C84.3812 165.816 81.3373 161.469 82.1412 156.91L102.518 41.3442C103.322 36.7852 107.67 33.7411 112.229 34.545ZM60.41 59.0937C63.6834 62.367 63.6834 67.6743 60.41 70.9476L30.775 100.583L60.41 130.217C63.6834 133.491 63.6834 138.798 60.41 142.071C57.1366 145.345 51.8294 145.345 48.556 142.071L12.994 106.51C11.4221 104.938 10.5389 102.806 10.5389 100.583C10.5389 98.3598 11.4221 96.2275 12.994 94.6558L48.556 59.0937C51.8294 55.8202 57.1366 55.8202 60.41 59.0937ZM152.613 59.0937L188.174 94.6558C189.746 96.2275 190.629 98.3598 190.629 100.583C190.629 102.806 189.746 104.938 188.174 106.51L152.613 142.071C149.339 145.345 144.032 145.345 140.759 142.071C137.485 138.798 137.485 133.491 140.759 130.217L170.394 100.583L140.759 70.9476C137.485 67.6743 137.485 62.367 140.759 59.0937C144.032 55.8202 149.339 55.8202 152.613 59.0937Z" fill="white"/>
</svg>
