<svg width="192" height="192" viewBox="0 0 192 192" fill="none" xmlns="http://www.w3.org/2000/svg">
<path d="M48 160H83.2C85.7452 159.997 88.1852 158.985 89.985 157.185C91.7847 155.385 92.797 152.945 92.8 150.4V67.2001C92.797 64.6549 91.7847 62.2149 89.985 60.4151C88.1852 58.6154 85.7452 57.6031 83.2 57.6001H48C45.4548 57.6031 43.0148 58.6154 41.2151 60.4151C39.4154 62.2149 38.403 64.6549 38.4 67.2001V150.4C38.403 152.945 39.4154 155.385 41.2151 157.185C43.0148 158.985 45.4548 159.997 48 160ZM51.2 70.4001H80V147.2H51.2V70.4001Z" fill="white"/>
<path d="M163.2 0H128C125.455 0.00296418 123.015 1.01534 121.215 2.81505C119.415 4.61476 118.403 7.05483 118.4 9.6V150.4C118.403 152.945 119.415 155.385 121.215 157.185C123.015 158.985 125.455 159.997 128 160H163.2C165.745 159.997 168.185 158.985 169.985 157.185C171.785 155.385 172.797 152.945 172.8 150.4V9.6C172.797 7.05483 171.785 4.61476 169.985 2.81505C168.185 1.01534 165.745 0.00296418 163.2 0ZM160 147.2H131.2V12.8H160V147.2Z" fill="white"/>
<path d="M12.8 0H0V192H192V179.2H12.8V0Z" fill="white"/>
</svg>
