<svg width="202" height="185" viewBox="0 0 202 185" fill="none" xmlns="http://www.w3.org/2000/svg">
<path d="M79.1556 12.5074C84.3449 4.69614 93.101 0 102.479 0H131.97C141.324 0 150.06 4.67086 155.255 12.4495L156.387 14.1438C160.923 20.9362 168.551 25.0149 176.719 25.0149V25.0149C190.222 25.0149 201.169 35.9615 201.169 49.4648V156.463C201.169 171.927 188.633 184.463 173.169 184.463H28C12.536 184.463 0 171.927 0 156.463V53.0149C0 37.5509 12.536 25.0149 28 25.0149H55.8322C65.2101 25.0149 73.9663 20.3187 79.1556 12.5074V12.5074ZM145.916 29.9257C140.719 22.1567 131.989 17.4929 122.642 17.4929H111.89C102.512 17.4929 93.7561 22.1889 88.5668 30.0003V30.0003C83.3775 37.8117 74.6214 42.5078 65.2434 42.5078H45.4927C30.0287 42.5078 17.4927 55.0438 17.4927 70.5078V138.97C17.4927 154.434 30.0287 166.97 45.4927 166.97H155.676C171.14 166.97 183.676 154.434 183.676 138.97V61.6345C183.676 51.0711 175.113 42.5078 164.549 42.5078V42.5078C158.164 42.5078 152.201 39.3219 148.651 34.0149L145.916 29.9257ZM117.29 50.0298C117.29 50.0297 117.29 50.0296 117.291 50.0296C145.163 50.0297 167.757 72.6248 167.757 100.497C167.757 128.369 145.162 150.964 117.29 150.964C89.418 150.964 66.8233 128.369 66.8233 100.497C66.858 72.6391 89.4322 50.0649 117.287 50.03H117.29C117.29 50.03 117.29 50.0299 117.29 50.0298V50.0298ZM117.29 133.471C117.29 133.471 117.29 133.471 117.291 133.471C135.502 133.471 150.265 118.708 150.265 100.497C150.265 82.2858 135.501 67.5222 117.29 67.5222C99.0791 67.5222 84.3161 82.2854 84.3161 100.496C84.3358 118.7 99.0871 133.451 117.288 133.471H117.29C117.29 133.471 117.29 133.471 117.29 133.471V133.471ZM58.8635 67.1729C58.8635 72.0034 54.9476 75.9193 50.1171 75.9193H42.508C37.6775 75.9193 33.7616 72.0034 33.7616 67.1729V67.1729C33.7616 62.3423 37.6775 58.4264 42.508 58.4264H50.1171C54.9476 58.4264 58.8635 62.3423 58.8635 67.1729V67.1729Z" fill="white"/>
</svg>
