<svg width="202" height="202" viewBox="0 0 202 202" fill="none" xmlns="http://www.w3.org/2000/svg">
<path d="M67.6358 50.5879H42.4892C37.8538 50.5879 34.107 46.8326 34.107 42.2057C34.107 37.5787 37.8538 33.8235 42.4892 33.8235H67.6358C72.2711 33.8235 76.018 37.5787 76.018 42.2057C76.018 46.8326 72.2711 50.5879 67.6358 50.5879ZM109.547 84.1166H42.4892C37.8538 84.1166 34.107 80.3614 34.107 75.7344C34.107 71.1075 37.8538 67.3523 42.4892 67.3523H109.547C114.182 67.3523 117.929 71.1075 117.929 75.7344C117.929 80.3614 114.182 84.1166 109.547 84.1166ZM109.547 117.645H42.4892C37.8538 117.645 34.107 113.89 34.107 109.263C34.107 104.636 37.8538 100.881 42.4892 100.881H109.547C114.182 100.881 117.929 104.636 117.929 109.263C117.929 113.89 114.182 117.645 109.547 117.645Z" fill="white"/>
<path d="M151.458 17.0591V84.1166C151.458 88.7268 147.686 92.4988 143.076 92.4988C138.465 92.4988 134.693 88.7268 134.693 84.1166V21.2502C134.693 18.9031 132.849 17.0591 130.502 17.0591H21.5337C19.1867 17.0591 17.3426 18.9031 17.3426 21.2502V180.512C17.3426 182.859 19.1867 184.703 21.5337 184.703H130.502C132.849 184.703 134.693 182.859 134.693 180.512V176.321C134.693 171.71 138.465 167.939 143.076 167.939C147.686 167.939 151.458 171.71 151.458 176.321V184.703C151.458 193.923 143.914 201.467 134.693 201.467H17.3426C8.12222 201.467 0.578247 193.923 0.578247 184.703V17.0591C0.578247 7.83865 8.12222 0.294678 17.3426 0.294678H134.693C143.914 0.294678 151.458 7.83865 151.458 17.0591Z" fill="white"/>
<path d="M200.661 99.8916C203.26 104.418 201.038 110.562 195.674 113.664L114.785 160.352C114.081 160.771 113.31 161.073 112.564 161.274L90.3011 166.807C87.1997 167.578 84.2659 166.513 82.9248 164.175C81.5668 161.844 82.1704 158.726 84.3497 156.522L100.335 140.109C100.863 139.506 101.483 139.078 102.128 138.71C102.162 138.626 102.229 138.584 102.229 138.584L183.117 91.895C188.482 88.7936 194.919 89.9336 197.534 94.4516L200.669 99.9L200.661 99.8916Z" fill="white"/>
</svg>
