<svg width="208" height="208" viewBox="0 0 208 208" fill="none" xmlns="http://www.w3.org/2000/svg">
<path d="M202.61 177.06C209.797 184.246 209.797 195.424 202.61 202.61C199.017 206.203 194.626 207.8 189.835 207.8C185.044 207.8 180.653 206.203 177.06 202.61L104 129.551L30.9405 202.61C27.3474 206.203 22.9559 207.8 18.1651 207.8C13.3743 207.8 8.98273 206.203 5.38964 202.61C-1.79655 195.424 -1.79655 184.246 5.38964 177.06L78.4491 104L5.38964 30.9405C-1.79655 23.7543 -1.79655 12.5758 5.38964 5.38963C12.5758 -1.79655 23.7543 -1.79655 30.9405 5.38963L104 78.4491L177.06 5.38963C184.246 -1.79655 195.424 -1.79655 202.61 5.38963C209.797 12.5758 209.797 23.7543 202.61 30.9405L129.551 104L202.61 177.06Z" fill="white"/>
</svg>
