<svg width="1440" height="567" viewBox="0 0 1440 567" fill="none" xmlns="http://www.w3.org/2000/svg">
<path d="M840.673 538.537L811.34 557H846H1486H1496V547V32V16.1131L1481.68 22.9834C1458.82 33.9454 1412.57 73.9423 1395.47 149.758C1386.25 190.677 1358.02 209.65 1328.2 218.955C1305.07 226.17 1282.84 227.194 1267.72 227.891C1262.68 228.123 1258.43 228.319 1255.2 228.695C1248.39 229.488 1237.23 232.873 1223.74 238.391C1209.98 244.022 1193.04 252.182 1174.47 263.048C1137.35 284.767 1093.36 317.486 1055.01 362.802C996.083 432.421 887.724 508.922 840.673 538.537Z" fill="#0F064E" stroke="#150A63" stroke-width="20"/>
<path d="M562.947 538.309L595.782 557H558H-26H-36V547V122V106.762L-22.0206 112.826C-1.08972 121.905 41.5999 155.182 57.4056 218.575C65.5484 251.233 90.5727 266.8 117.992 274.537C139.091 280.49 159.376 281.335 173.175 281.91C177.774 282.101 181.653 282.263 184.601 282.573C190.808 283.227 201 286.023 213.324 290.582C225.9 295.234 241.371 301.975 258.341 310.954C292.249 328.896 332.487 355.955 367.616 393.49C421.243 450.791 520 513.862 562.947 538.309Z" fill="#150A63" stroke="#0F064E" stroke-width="20"/>
</svg>
