<svg width="612" height="507" viewBox="0 0 612 507" fill="none" xmlns="http://www.w3.org/2000/svg">
<path d="M549.466 478.626L577.613 497H544H0H-10V487V33V16.8569L4.45367 24.0465C24.3439 33.9405 63.8436 69.5529 78.4262 136.624C86.1767 172.272 109.784 188.656 134.679 196.712C154.082 202.99 172.548 203.874 185.404 204.489C189.781 204.698 193.508 204.876 196.4 205.226C202.443 205.956 212.114 209.023 223.605 213.898C235.385 218.895 249.849 226.124 265.697 235.741C297.375 254.963 334.89 283.909 367.602 323.992C417.555 385.202 509.51 452.543 549.466 478.626Z" fill="#150A63" stroke="#0F064E" stroke-width="20"/>
</svg>
