<svg width="612" height="507" viewBox="0 0 612 507" fill="none" xmlns="http://www.w3.org/2000/svg">
<path d="M62.5337 478.626L34.3871 497H68H612H622V487V33V16.8569L607.546 24.0465C587.656 33.9405 548.156 69.5529 533.574 136.624C525.823 172.272 502.216 188.656 477.321 196.712C457.918 202.99 439.452 203.874 426.596 204.489C422.219 204.698 418.492 204.876 415.6 205.226C409.557 205.956 399.886 209.023 388.395 213.898C376.615 218.895 362.151 226.124 346.303 235.741C314.625 254.963 277.11 283.909 244.398 323.992C194.445 385.202 102.49 452.543 62.5337 478.626Z" fill="#0F064E" stroke="#150A63" stroke-width="20"/>
</svg>
