<svg width="204" height="233" viewBox="0 0 204 233" fill="none" xmlns="http://www.w3.org/2000/svg">
<path d="M87.5041 217.506V45.532L24.2824 98.1684C22.8162 99.3871 21.1243 100.305 19.3033 100.87C17.4823 101.435 15.5678 101.635 13.6693 101.46C9.83498 101.107 6.29818 99.2446 3.8369 96.2834C1.37563 93.3221 0.191511 89.5045 0.545026 85.6702C0.898541 81.8359 2.76075 78.2991 5.72197 75.8378L92.7242 3.33596C93.4162 2.84818 94.1432 2.41199 94.8992 2.03093C95.6243 2.03093 96.0593 1.30591 96.7843 1.0159C98.4469 0.358652 100.217 0.0145288 102.004 0.000882149C103.792 0.0145288 105.562 0.358652 107.225 1.0159C107.95 1.0159 108.385 1.74092 109.11 2.03093C109.866 2.41199 110.593 2.84818 111.285 3.33596L198.287 75.8378C199.924 77.2012 201.24 78.9085 202.142 80.8382C203.045 82.768 203.51 84.8729 203.507 87.0031C203.514 90.3912 202.334 93.6746 200.172 96.2834C198.955 97.7516 197.46 98.9653 195.773 99.855C194.085 100.745 192.239 101.293 190.34 101.468C188.441 101.643 186.526 101.442 184.705 100.875C182.883 100.309 181.192 99.3894 179.726 98.1684L116.505 45.532V217.506C116.505 221.352 114.977 225.04 112.258 227.76C109.538 230.479 105.85 232.007 102.004 232.007C98.1587 232.007 94.4705 230.479 91.7511 227.76C89.0318 225.04 87.5041 221.352 87.5041 217.506Z" fill="white"/>
</svg>
