<svg width="267" height="407" viewBox="0 0 267 407" fill="none" xmlns="http://www.w3.org/2000/svg">
<path d="M136 269L136 407" stroke="url(#paint0_linear_9_199)" stroke-width="4" stroke-dasharray="12 25"/>
<path d="M162 0L162 251C162 262.598 152.598 272 141 272V272C129.402 272 120 262.598 120 251L120 0L162 0Z" fill="#200F93" fill-opacity="0.3"/>
<rect x="120" y="112" width="42" height="42" rx="21" fill="#200F93"/>
<rect x="130.5" y="133.53" width="3.75" height="10.5" rx="1.875" transform="rotate(-44.0462 130.5 133.53)" fill="#D9D9D9"/>
<rect x="148.687" y="125.5" width="3.75" height="18.6673" rx="1.875" transform="rotate(46.2043 148.687 125.5)" fill="#D9D9D9"/>
<rect x="120" y="230" width="42" height="42" rx="21" fill="#200F93"/>
<rect x="130.5" y="251.53" width="3.75" height="10.5" rx="1.875" transform="rotate(-44.0462 130.5 251.53)" fill="#D9D9D9"/>
<rect x="148.687" y="243.5" width="3.75" height="18.6673" rx="1.875" transform="rotate(46.2043 148.687 243.5)" fill="#D9D9D9"/>
<path d="M3.1 131V129H7.12C7.82667 129 8.37333 128.78 8.76 128.34C9.14667 127.9 9.34 127.393 9.34 126.82C9.34 126.433 9.25333 126.073 9.08 125.74C8.90667 125.407 8.65333 125.14 8.32 124.94C7.98667 124.74 7.58667 124.64 7.12 124.64H3.1V122.64H6.78C7.38 122.64 7.86 122.487 8.22 122.18C8.58 121.873 8.76 121.42 8.76 120.82C8.76 120.22 8.58 119.767 8.22 119.46C7.86 119.153 7.38 119 6.78 119H3.1V117H6.84C7.78667 117 8.57333 117.173 9.2 117.52C9.82667 117.867 10.2933 118.313 10.6 118.86C10.9067 119.407 11.06 119.993 11.06 120.62C11.06 121.353 10.8533 122 10.44 122.56C10.04 123.12 9.44667 123.573 8.66 123.92L8.84 123.2C9.72 123.56 10.4067 124.067 10.9 124.72C11.3933 125.373 11.64 126.14 11.64 127.02C11.64 127.74 11.46 128.4 11.1 129C10.7533 129.6 10.2333 130.087 9.54 130.46C8.86 130.82 8.02 131 7.02 131H3.1ZM1.52 131V117H3.82V131H1.52ZM12.9214 131L18.6814 117H20.2814L26.0014 131H23.5214L19.0414 119.66H19.8814L15.3614 131H12.9214ZM15.7614 128.3V126.3H23.1814V128.3H15.7614ZM33.3683 131.2C32.3549 131.2 31.4149 131.02 30.5483 130.66C29.6949 130.287 28.9483 129.773 28.3083 129.12C27.6683 128.453 27.1749 127.687 26.8283 126.82C26.4816 125.94 26.3083 125 26.3083 124C26.3083 123 26.4816 122.067 26.8283 121.2C27.1749 120.32 27.6683 119.553 28.3083 118.9C28.9483 118.247 29.6949 117.733 30.5483 117.36C31.4149 116.987 32.3549 116.8 33.3683 116.8C34.5016 116.8 35.4816 116.987 36.3083 117.36C37.1349 117.733 37.8683 118.24 38.5083 118.88L36.9483 120.44C36.5349 119.987 36.0283 119.633 35.4283 119.38C34.8416 119.127 34.1549 119 33.3683 119C32.6749 119 32.0416 119.12 31.4683 119.36C30.8949 119.6 30.3949 119.947 29.9683 120.4C29.5549 120.84 29.2349 121.367 29.0083 121.98C28.7816 122.593 28.6683 123.267 28.6683 124C28.6683 124.733 28.7816 125.407 29.0083 126.02C29.2349 126.633 29.5549 127.167 29.9683 127.62C30.3949 128.06 30.8949 128.4 31.4683 128.64C32.0416 128.88 32.6749 129 33.3683 129C34.2216 129 34.9416 128.873 35.5283 128.62C36.1283 128.353 36.6349 127.993 37.0483 127.54L38.6083 129.1C37.9683 129.753 37.2149 130.267 36.3483 130.64C35.4816 131.013 34.4883 131.2 33.3683 131.2ZM48.5645 131.2C47.4579 131.2 46.5179 131 45.7445 130.6C44.9712 130.2 44.2779 129.613 43.6645 128.84L45.2245 127.28C45.6112 127.84 46.0712 128.28 46.6045 128.6C47.1379 128.907 47.8179 129.06 48.6445 129.06C49.4179 129.06 50.0312 128.9 50.4845 128.58C50.9512 128.26 51.1845 127.82 51.1845 127.26C51.1845 126.793 51.0645 126.413 50.8245 126.12C50.5845 125.827 50.2645 125.587 49.8645 125.4C49.4779 125.2 49.0445 125.027 48.5645 124.88C48.0979 124.72 47.6245 124.547 47.1445 124.36C46.6779 124.16 46.2445 123.913 45.8445 123.62C45.4579 123.327 45.1445 122.947 44.9045 122.48C44.6645 122.013 44.5445 121.42 44.5445 120.7C44.5445 119.873 44.7445 119.173 45.1445 118.6C45.5579 118.013 46.1112 117.567 46.8045 117.26C47.4979 116.953 48.2712 116.8 49.1245 116.8C50.0445 116.8 50.8645 116.98 51.5845 117.34C52.3179 117.7 52.9112 118.16 53.3645 118.72L51.8045 120.28C51.4045 119.827 50.9845 119.493 50.5445 119.28C50.1179 119.053 49.6245 118.94 49.0645 118.94C48.3712 118.94 47.8245 119.08 47.4245 119.36C47.0379 119.64 46.8445 120.033 46.8445 120.54C46.8445 120.967 46.9645 121.313 47.2045 121.58C47.4445 121.833 47.7579 122.053 48.1445 122.24C48.5445 122.413 48.9779 122.58 49.4445 122.74C49.9245 122.9 50.3979 123.08 50.8645 123.28C51.3445 123.48 51.7779 123.74 52.1645 124.06C52.5645 124.367 52.8845 124.767 53.1245 125.26C53.3645 125.753 53.4845 126.373 53.4845 127.12C53.4845 128.373 53.0379 129.367 52.1445 130.1C51.2645 130.833 50.0712 131.2 48.5645 131.2ZM58.6923 131V117.4H60.9923V131H58.6923ZM54.1323 119.1V117H65.5523V119.1H54.1323ZM67.5552 131V117H69.8552V131H67.5552ZM71.9272 129.64L77.0872 124.16C77.5139 123.707 77.8605 123.3 78.1272 122.94C78.3939 122.58 78.5872 122.24 78.7072 121.92C78.8272 121.6 78.8872 121.273 78.8872 120.94C78.8872 120.313 78.6805 119.827 78.2672 119.48C77.8672 119.12 77.3539 118.94 76.7272 118.94C76.0605 118.94 75.4739 119.107 74.9672 119.44C74.4605 119.773 74.0072 120.293 73.6072 121L72.0072 119.68C72.5539 118.733 73.2272 118.02 74.0272 117.54C74.8272 117.047 75.7539 116.8 76.8072 116.8C77.6739 116.8 78.4339 116.973 79.0872 117.32C79.7405 117.667 80.2472 118.153 80.6072 118.78C80.9672 119.393 81.1472 120.107 81.1472 120.92C81.1472 121.507 81.0739 122.033 80.9272 122.5C80.7939 122.953 80.5605 123.413 80.2272 123.88C79.8939 124.333 79.4339 124.867 78.8472 125.48L74.8872 129.58L71.9272 129.64ZM71.9272 131V129.64L73.9072 128.94H81.4272V131H71.9272ZM85.2875 131V128.9H88.9675C89.9275 128.9 90.7675 128.693 91.4875 128.28C92.2208 127.867 92.7875 127.293 93.1875 126.56C93.6008 125.813 93.8075 124.953 93.8075 123.98C93.8075 123.02 93.6008 122.173 93.1875 121.44C92.7742 120.707 92.2008 120.133 91.4675 119.72C90.7475 119.307 89.9142 119.1 88.9675 119.1H85.2875V117H89.0275C90.0408 117 90.9808 117.18 91.8475 117.54C92.7142 117.887 93.4675 118.38 94.1075 119.02C94.7608 119.647 95.2675 120.387 95.6275 121.24C95.9875 122.08 96.1675 123 96.1675 124C96.1675 124.987 95.9875 125.907 95.6275 126.76C95.2675 127.613 94.7675 128.36 94.1275 129C93.4875 129.627 92.7342 130.12 91.8675 130.48C91.0008 130.827 90.0675 131 89.0675 131H85.2875ZM83.7075 131V117H86.0075V131H83.7075Z" fill="#F1F1F1"/>
<path d="M0.88 151V144.12H1.4L4.37 148.99H4L6.97 144.12H7.49V151H6.75V145.4L6.92 145.44L4.44 149.51H3.92L1.44 145.44L1.61 145.4V151H0.88ZM11.2394 151.1C10.766 151.1 10.3427 150.993 9.96938 150.78C9.59604 150.567 9.29938 150.273 9.07938 149.9C8.86604 149.527 8.75938 149.107 8.75938 148.64C8.75938 148.18 8.86604 147.767 9.07938 147.4C9.29271 147.027 9.58271 146.733 9.94938 146.52C10.316 146.307 10.726 146.2 11.1794 146.2C11.606 146.2 11.9827 146.297 12.3094 146.49C12.6427 146.683 12.9027 146.953 13.0894 147.3C13.2827 147.64 13.3794 148.033 13.3794 148.48C13.3794 148.533 13.376 148.597 13.3694 148.67C13.3627 148.737 13.3494 148.817 13.3294 148.91H9.25938V148.31H12.9494L12.6994 148.53C12.706 148.183 12.646 147.887 12.5194 147.64C12.3994 147.387 12.2227 147.193 11.9894 147.06C11.7627 146.92 11.486 146.85 11.1594 146.85C10.8194 146.85 10.5227 146.923 10.2694 147.07C10.016 147.217 9.81604 147.423 9.66938 147.69C9.52938 147.95 9.45938 148.26 9.45938 148.62C9.45938 148.98 9.53271 149.297 9.67937 149.57C9.83271 149.843 10.0427 150.057 10.3094 150.21C10.5827 150.363 10.896 150.44 11.2494 150.44C11.536 150.44 11.7994 150.39 12.0394 150.29C12.2794 150.183 12.4827 150.027 12.6494 149.82L13.0994 150.28C12.8794 150.54 12.606 150.743 12.2794 150.89C11.9594 151.03 11.6127 151.1 11.2394 151.1ZM17.8702 151V148.24C17.8702 147.827 17.7469 147.493 17.5002 147.24C17.2602 146.98 16.9402 146.85 16.5402 146.85C16.2669 146.85 16.0269 146.91 15.8202 147.03C15.6136 147.15 15.4502 147.313 15.3302 147.52C15.2102 147.727 15.1502 147.963 15.1502 148.23L14.8302 148.05C14.8302 147.697 14.9136 147.38 15.0802 147.1C15.2469 146.82 15.4702 146.6 15.7502 146.44C16.0369 146.28 16.3636 146.2 16.7302 146.2C17.0902 146.2 17.4102 146.287 17.6902 146.46C17.9702 146.633 18.1869 146.867 18.3402 147.16C18.5002 147.453 18.5802 147.773 18.5802 148.12V151H17.8702ZM14.4502 151V146.3H15.1502V151H14.4502ZM20.5611 151V144.32H21.2611V151H20.5611ZM19.3711 146.93V146.3H22.4411V146.93H19.3711ZM23.4053 151V146.3H24.1153V151H23.4053ZM23.7553 145.28C23.622 145.28 23.5086 145.233 23.4153 145.14C23.322 145.04 23.2753 144.923 23.2753 144.79C23.2753 144.65 23.322 144.533 23.4153 144.44C23.5086 144.347 23.622 144.3 23.7553 144.3C23.902 144.3 24.0186 144.347 24.1053 144.44C24.1986 144.533 24.2453 144.65 24.2453 144.79C24.2453 144.923 24.1986 145.04 24.1053 145.14C24.0186 145.233 23.902 145.28 23.7553 145.28ZM27.6642 151.1C27.2109 151.1 26.7976 150.99 26.4242 150.77C26.0576 150.55 25.7642 150.253 25.5442 149.88C25.3309 149.507 25.2242 149.09 25.2242 148.63C25.2242 148.177 25.3309 147.767 25.5442 147.4C25.7642 147.033 26.0576 146.743 26.4242 146.53C26.7976 146.31 27.2109 146.2 27.6642 146.2C28.1242 146.2 28.5376 146.307 28.9042 146.52C29.2709 146.733 29.5609 147.027 29.7742 147.4C29.9942 147.767 30.1042 148.177 30.1042 148.63C30.1042 149.097 29.9942 149.517 29.7742 149.89C29.5609 150.257 29.2709 150.55 28.9042 150.77C28.5376 150.99 28.1242 151.1 27.6642 151.1ZM27.6642 150.42C27.9976 150.42 28.2909 150.343 28.5442 150.19C28.8042 150.037 29.0076 149.823 29.1542 149.55C29.3076 149.277 29.3842 148.97 29.3842 148.63C29.3842 148.29 29.3076 147.99 29.1542 147.73C29.0076 147.463 28.8042 147.253 28.5442 147.1C28.2909 146.947 27.9976 146.87 27.6642 146.87C27.3376 146.87 27.0442 146.947 26.7842 147.1C26.5242 147.253 26.3209 147.463 26.1742 147.73C26.0276 147.99 25.9542 148.29 25.9542 148.63C25.9542 148.977 26.0276 149.287 26.1742 149.56C26.3209 149.827 26.5242 150.037 26.7842 150.19C27.0442 150.343 27.3376 150.42 27.6642 150.42ZM34.6378 151V148.24C34.6378 147.827 34.5145 147.493 34.2678 147.24C34.0278 146.98 33.7078 146.85 33.3078 146.85C33.0345 146.85 32.7945 146.91 32.5878 147.03C32.3811 147.15 32.2178 147.313 32.0978 147.52C31.9778 147.727 31.9178 147.963 31.9178 148.23L31.5978 148.05C31.5978 147.697 31.6811 147.38 31.8478 147.1C32.0145 146.82 32.2378 146.6 32.5178 146.44C32.8045 146.28 33.1311 146.2 33.4978 146.2C33.8578 146.2 34.1778 146.287 34.4578 146.46C34.7378 146.633 34.9545 146.867 35.1078 147.16C35.2678 147.453 35.3478 147.773 35.3478 148.12V151H34.6378ZM31.2178 151V146.3H31.9178V151H31.2178ZM39.4457 151.1C39.279 151.1 39.1424 151.043 39.0357 150.93C38.9357 150.817 38.8857 150.683 38.8857 150.53C38.8857 150.363 38.9357 150.227 39.0357 150.12C39.1424 150.007 39.279 149.95 39.4457 149.95C39.6057 149.95 39.739 150.007 39.8457 150.12C39.959 150.227 40.0157 150.363 40.0157 150.53C40.0157 150.683 39.959 150.817 39.8457 150.93C39.739 151.043 39.6057 151.1 39.4457 151.1ZM39.4457 147.95C39.279 147.95 39.1424 147.893 39.0357 147.78C38.9357 147.667 38.8857 147.533 38.8857 147.38C38.8857 147.213 38.9357 147.077 39.0357 146.97C39.1424 146.863 39.279 146.81 39.4457 146.81C39.6057 146.81 39.739 146.863 39.8457 146.97C39.959 147.077 40.0157 147.213 40.0157 147.38C40.0157 147.533 39.959 147.667 39.8457 147.78C39.739 147.893 39.6057 147.95 39.4457 147.95ZM44.2895 151V150.35H46.4695C46.9228 150.35 47.2795 150.223 47.5395 149.97C47.7995 149.717 47.9295 149.4 47.9295 149.02C47.9295 148.773 47.8728 148.55 47.7595 148.35C47.6461 148.15 47.4828 147.993 47.2695 147.88C47.0628 147.76 46.8161 147.7 46.5295 147.7H44.2895V147.06H46.4195C46.7928 147.06 47.0861 146.96 47.2995 146.76C47.5195 146.56 47.6295 146.277 47.6295 145.91C47.6295 145.543 47.5128 145.26 47.2795 145.06C47.0461 144.86 46.7328 144.76 46.3395 144.76H44.2895V144.12H46.3595C46.7861 144.12 47.1495 144.197 47.4495 144.35C47.7495 144.503 47.9761 144.71 48.1295 144.97C48.2828 145.23 48.3595 145.523 48.3595 145.85C48.3595 146.237 48.2595 146.57 48.0595 146.85C47.8595 147.123 47.5661 147.333 47.1795 147.48L47.2495 147.24C47.6961 147.38 48.0428 147.61 48.2895 147.93C48.5428 148.25 48.6695 148.63 48.6695 149.07C48.6695 149.437 48.5795 149.767 48.3995 150.06C48.2261 150.347 47.9695 150.577 47.6295 150.75C47.2961 150.917 46.8928 151 46.4195 151H44.2895ZM43.8195 151V144.12H44.5495V151H43.8195ZM49.8995 151V146.3H50.6095V151H49.8995ZM50.2495 145.28C50.1161 145.28 50.0028 145.233 49.9095 145.14C49.8161 145.04 49.7695 144.923 49.7695 144.79C49.7695 144.65 49.8161 144.533 49.9095 144.44C50.0028 144.347 50.1161 144.3 50.2495 144.3C50.3961 144.3 50.5128 144.347 50.5995 144.44C50.6928 144.533 50.7395 144.65 50.7395 144.79C50.7395 144.923 50.6928 145.04 50.5995 145.14C50.5128 145.233 50.3961 145.28 50.2495 145.28ZM54.1984 151.1C53.725 151.1 53.3017 150.993 52.9284 150.78C52.555 150.567 52.2584 150.273 52.0384 149.9C51.825 149.527 51.7184 149.107 51.7184 148.64C51.7184 148.18 51.825 147.767 52.0384 147.4C52.2517 147.027 52.5417 146.733 52.9084 146.52C53.275 146.307 53.685 146.2 54.1384 146.2C54.565 146.2 54.9417 146.297 55.2684 146.49C55.6017 146.683 55.8617 146.953 56.0484 147.3C56.2417 147.64 56.3384 148.033 56.3384 148.48C56.3384 148.533 56.335 148.597 56.3284 148.67C56.3217 148.737 56.3084 148.817 56.2884 148.91H52.2184V148.31H55.9084L55.6584 148.53C55.665 148.183 55.605 147.887 55.4784 147.64C55.3584 147.387 55.1817 147.193 54.9484 147.06C54.7217 146.92 54.445 146.85 54.1184 146.85C53.7784 146.85 53.4817 146.923 53.2284 147.07C52.975 147.217 52.775 147.423 52.6284 147.69C52.4884 147.95 52.4184 148.26 52.4184 148.62C52.4184 148.98 52.4917 149.297 52.6384 149.57C52.7917 149.843 53.0017 150.057 53.2684 150.21C53.5417 150.363 53.855 150.44 54.2084 150.44C54.495 150.44 54.7584 150.39 54.9984 150.29C55.2384 150.183 55.4417 150.027 55.6084 149.82L56.0584 150.28C55.8384 150.54 55.565 150.743 55.2384 150.89C54.9184 151.03 54.5717 151.1 54.1984 151.1ZM60.8292 151V148.24C60.8292 147.827 60.7059 147.493 60.4592 147.24C60.2192 146.98 59.8992 146.85 59.4992 146.85C59.2259 146.85 58.9859 146.91 58.7792 147.03C58.5726 147.15 58.4092 147.313 58.2892 147.52C58.1692 147.727 58.1092 147.963 58.1092 148.23L57.7892 148.05C57.7892 147.697 57.8726 147.38 58.0392 147.1C58.2059 146.82 58.4292 146.6 58.7092 146.44C58.9959 146.28 59.3226 146.2 59.6892 146.2C60.0492 146.2 60.3692 146.287 60.6492 146.46C60.9292 146.633 61.1459 146.867 61.2992 147.16C61.4592 147.453 61.5392 147.773 61.5392 148.12V151H60.8292ZM57.4092 151V146.3H58.1092V151H57.4092Z" fill="#7A7A7A"/>
<rect x="66" y="141" width="31" height="13" rx="6.5" fill="#201E2E"/>
<path d="M73.266 149.685L75.051 147.823C75.2563 147.604 75.415 147.419 75.527 147.27C75.6437 147.121 75.723 146.985 75.765 146.864C75.8117 146.738 75.835 146.607 75.835 146.472C75.835 146.197 75.7487 145.982 75.576 145.828C75.4033 145.669 75.1747 145.59 74.89 145.59C74.6287 145.59 74.4 145.653 74.204 145.779C74.008 145.9 73.833 146.085 73.679 146.332L73.322 146.017C73.5087 145.723 73.7327 145.499 73.994 145.345C74.2553 145.191 74.5587 145.114 74.904 145.114C75.1933 145.114 75.4453 145.17 75.66 145.282C75.8793 145.394 76.0473 145.553 76.164 145.758C76.2853 145.963 76.346 146.204 76.346 146.479C76.346 146.67 76.3203 146.845 76.269 147.004C76.2177 147.158 76.1267 147.321 75.996 147.494C75.87 147.662 75.6903 147.867 75.457 148.11L73.945 149.664L73.266 149.685ZM73.266 150V149.685L73.686 149.538H76.465V150H73.266ZM79.0903 150.07C78.7356 150.07 78.4113 149.97 78.1173 149.769C77.8233 149.564 77.5876 149.274 77.4103 148.901C77.2376 148.528 77.1513 148.089 77.1513 147.585C77.1513 147.076 77.2376 146.64 77.4103 146.276C77.5829 145.907 77.8139 145.623 78.1033 145.422C78.3973 145.217 78.7216 145.114 79.0763 145.114C79.4356 145.114 79.7599 145.214 80.0493 145.415C80.3433 145.616 80.5766 145.903 80.7493 146.276C80.9219 146.645 81.0083 147.083 81.0083 147.592C81.0083 148.096 80.9219 148.535 80.7493 148.908C80.5766 149.281 80.3456 149.568 80.0563 149.769C79.7669 149.97 79.4449 150.07 79.0903 150.07ZM79.0763 149.587C79.3516 149.587 79.5943 149.51 79.8043 149.356C80.0189 149.197 80.1869 148.971 80.3083 148.677C80.4296 148.378 80.4903 148.014 80.4903 147.585C80.4903 147.16 80.4296 146.801 80.3083 146.507C80.1869 146.208 80.0189 145.982 79.8043 145.828C79.5943 145.674 79.3516 145.597 79.0763 145.597C78.8056 145.597 78.5629 145.674 78.3483 145.828C78.1383 145.982 77.9726 146.206 77.8513 146.5C77.7299 146.794 77.6693 147.156 77.6693 147.585C77.6693 148.014 77.7299 148.378 77.8513 148.677C77.9726 148.971 78.1383 149.197 78.3483 149.356C78.5629 149.51 78.8056 149.587 79.0763 149.587ZM81.6195 149.685L83.4045 147.823C83.6098 147.604 83.7685 147.419 83.8805 147.27C83.9972 147.121 84.0765 146.985 84.1185 146.864C84.1652 146.738 84.1885 146.607 84.1885 146.472C84.1885 146.197 84.1022 145.982 83.9295 145.828C83.7568 145.669 83.5282 145.59 83.2435 145.59C82.9822 145.59 82.7535 145.653 82.5575 145.779C82.3615 145.9 82.1865 146.085 82.0325 146.332L81.6755 146.017C81.8622 145.723 82.0862 145.499 82.3475 145.345C82.6088 145.191 82.9122 145.114 83.2575 145.114C83.5468 145.114 83.7988 145.17 84.0135 145.282C84.2328 145.394 84.4008 145.553 84.5175 145.758C84.6388 145.963 84.6995 146.204 84.6995 146.479C84.6995 146.67 84.6738 146.845 84.6225 147.004C84.5712 147.158 84.4802 147.321 84.3495 147.494C84.2235 147.662 84.0438 147.867 83.8105 148.11L82.2985 149.664L81.6195 149.685ZM81.6195 150V149.685L82.0395 149.538H84.8185V150H81.6195ZM85.3998 149.685L87.1848 147.823C87.3901 147.604 87.5488 147.419 87.6608 147.27C87.7775 147.121 87.8568 146.985 87.8988 146.864C87.9455 146.738 87.9688 146.607 87.9688 146.472C87.9688 146.197 87.8825 145.982 87.7098 145.828C87.5371 145.669 87.3085 145.59 87.0238 145.59C86.7625 145.59 86.5338 145.653 86.3378 145.779C86.1418 145.9 85.9668 146.085 85.8128 146.332L85.4558 146.017C85.6425 145.723 85.8665 145.499 86.1278 145.345C86.3891 145.191 86.6925 145.114 87.0378 145.114C87.3271 145.114 87.5791 145.17 87.7938 145.282C88.0131 145.394 88.1811 145.553 88.2978 145.758C88.4191 145.963 88.4798 146.204 88.4798 146.479C88.4798 146.67 88.4541 146.845 88.4028 147.004C88.3515 147.158 88.2605 147.321 88.1298 147.494C88.0038 147.662 87.8241 147.867 87.5908 148.11L86.0788 149.664L85.3998 149.685ZM85.3998 150V149.685L85.8198 149.538H88.5988V150H85.3998Z" fill="#696969"/>
<path d="M188.1 249V247H192.12C192.827 247 193.373 246.78 193.76 246.34C194.147 245.9 194.34 245.393 194.34 244.82C194.34 244.433 194.253 244.073 194.08 243.74C193.907 243.407 193.653 243.14 193.32 242.94C192.987 242.74 192.587 242.64 192.12 242.64H188.1V240.64H191.78C192.38 240.64 192.86 240.487 193.22 240.18C193.58 239.873 193.76 239.42 193.76 238.82C193.76 238.22 193.58 237.767 193.22 237.46C192.86 237.153 192.38 237 191.78 237H188.1V235H191.84C192.787 235 193.573 235.173 194.2 235.52C194.827 235.867 195.293 236.313 195.6 236.86C195.907 237.407 196.06 237.993 196.06 238.62C196.06 239.353 195.853 240 195.44 240.56C195.04 241.12 194.447 241.573 193.66 241.92L193.84 241.2C194.72 241.56 195.407 242.067 195.9 242.72C196.393 243.373 196.64 244.14 196.64 245.02C196.64 245.74 196.46 246.4 196.1 247C195.753 247.6 195.233 248.087 194.54 248.46C193.86 248.82 193.02 249 192.02 249H188.1ZM186.52 249V235H188.82V249H186.52ZM204.361 249.2C203.308 249.2 202.361 248.96 201.521 248.48C200.681 248 200.015 247.347 199.521 246.52C199.041 245.68 198.801 244.733 198.801 243.68V235H201.101V243.66C201.101 244.34 201.241 244.933 201.521 245.44C201.815 245.933 202.208 246.32 202.701 246.6C203.195 246.867 203.748 247 204.361 247C204.988 247 205.541 246.867 206.021 246.6C206.501 246.32 206.881 245.933 207.161 245.44C207.441 244.933 207.581 244.347 207.581 243.68V235H209.881V243.7C209.881 244.753 209.641 245.693 209.161 246.52C208.681 247.347 208.028 248 207.201 248.48C206.375 248.96 205.428 249.2 204.361 249.2ZM216.114 249V235.4H218.414V249H216.114ZM211.554 237.1V235H222.974V237.1H211.554ZM228.668 249V235H230.268L236.088 244.58H235.048L240.868 235H242.468V249H240.168V239.04L240.688 239.18L236.368 246.28H234.768L230.448 239.18L230.968 239.04V249H228.668ZM245.504 249V235H247.104L252.924 244.58H251.884L257.704 235H259.304V249H257.004V239.04L257.524 239.18L253.204 246.28H251.604L247.284 239.18L247.804 239.04V249H245.504ZM262.34 249V235H264.64V249H262.34Z" fill="#F1F1F1"/>
<path d="M185.88 269V262.12H186.61V269H185.88ZM186.36 269V268.33H190.41V269H186.36ZM186.36 265.8V265.15H190.09V265.8H186.36ZM186.36 262.79V262.12H190.35V262.79H186.36ZM195.019 269V266.24C195.019 265.827 194.895 265.493 194.649 265.24C194.409 264.98 194.089 264.85 193.689 264.85C193.415 264.85 193.175 264.91 192.969 265.03C192.762 265.15 192.599 265.313 192.479 265.52C192.359 265.727 192.299 265.963 192.299 266.23L191.979 266.05C191.979 265.697 192.062 265.38 192.229 265.1C192.395 264.82 192.619 264.6 192.899 264.44C193.185 264.28 193.512 264.2 193.879 264.2C194.239 264.2 194.559 264.287 194.839 264.46C195.119 264.633 195.335 264.867 195.489 265.16C195.649 265.453 195.729 265.773 195.729 266.12V269H195.019ZM191.599 269V264.3H192.299V269H191.599ZM201.327 269.1C200.867 269.1 200.45 268.993 200.077 268.78C199.71 268.56 199.417 268.263 199.197 267.89C198.983 267.517 198.877 267.1 198.877 266.64C198.877 266.18 198.983 265.767 199.197 265.4C199.417 265.027 199.71 264.733 200.077 264.52C200.45 264.307 200.867 264.2 201.327 264.2C201.68 264.2 202.01 264.267 202.317 264.4C202.623 264.533 202.883 264.72 203.097 264.96L202.637 265.43C202.477 265.25 202.283 265.113 202.057 265.02C201.83 264.92 201.587 264.87 201.327 264.87C200.993 264.87 200.697 264.947 200.437 265.1C200.177 265.253 199.973 265.463 199.827 265.73C199.68 265.99 199.607 266.293 199.607 266.64C199.607 266.98 199.68 267.287 199.827 267.56C199.973 267.827 200.177 268.037 200.437 268.19C200.697 268.343 200.993 268.42 201.327 268.42C201.593 268.42 201.84 268.373 202.067 268.28C202.293 268.18 202.487 268.04 202.647 267.86L203.117 268.33C202.897 268.577 202.63 268.767 202.317 268.9C202.01 269.033 201.68 269.1 201.327 269.1ZM206.141 269.1C205.687 269.1 205.274 268.99 204.901 268.77C204.534 268.55 204.241 268.253 204.021 267.88C203.807 267.507 203.701 267.09 203.701 266.63C203.701 266.177 203.807 265.767 204.021 265.4C204.241 265.033 204.534 264.743 204.901 264.53C205.274 264.31 205.687 264.2 206.141 264.2C206.601 264.2 207.014 264.307 207.381 264.52C207.747 264.733 208.037 265.027 208.251 265.4C208.471 265.767 208.581 266.177 208.581 266.63C208.581 267.097 208.471 267.517 208.251 267.89C208.037 268.257 207.747 268.55 207.381 268.77C207.014 268.99 206.601 269.1 206.141 269.1ZM206.141 268.42C206.474 268.42 206.767 268.343 207.021 268.19C207.281 268.037 207.484 267.823 207.631 267.55C207.784 267.277 207.861 266.97 207.861 266.63C207.861 266.29 207.784 265.99 207.631 265.73C207.484 265.463 207.281 265.253 207.021 265.1C206.767 264.947 206.474 264.87 206.141 264.87C205.814 264.87 205.521 264.947 205.261 265.1C205.001 265.253 204.797 265.463 204.651 265.73C204.504 265.99 204.431 266.29 204.431 266.63C204.431 266.977 204.504 267.287 204.651 267.56C204.797 267.827 205.001 268.037 205.261 268.19C205.521 268.343 205.814 268.42 206.141 268.42ZM211.554 269.1C211.174 269.1 210.834 269.013 210.534 268.84C210.234 268.66 209.998 268.417 209.824 268.11C209.658 267.803 209.574 267.443 209.574 267.03V264.3H210.284V267C210.284 267.287 210.334 267.537 210.434 267.75C210.541 267.963 210.691 268.13 210.884 268.25C211.078 268.37 211.301 268.43 211.554 268.43C211.948 268.43 212.258 268.3 212.484 268.04C212.718 267.78 212.834 267.433 212.834 267V264.3H213.534V267.03C213.534 267.437 213.451 267.797 213.284 268.11C213.118 268.423 212.884 268.667 212.584 268.84C212.284 269.013 211.941 269.1 211.554 269.1ZM214.841 269V264.3H215.541V269H214.841ZM215.541 266.26L215.251 266.13C215.251 265.537 215.394 265.067 215.681 264.72C215.974 264.373 216.374 264.2 216.881 264.2C217.114 264.2 217.328 264.243 217.521 264.33C217.714 264.41 217.894 264.54 218.061 264.72L217.601 265.21C217.488 265.083 217.361 264.993 217.221 264.94C217.088 264.887 216.934 264.86 216.761 264.86C216.401 264.86 216.108 264.98 215.881 265.22C215.654 265.453 215.541 265.8 215.541 266.26ZM220.138 269.1C219.885 269.1 219.642 269.067 219.408 269C219.175 268.927 218.962 268.827 218.768 268.7C218.582 268.573 218.418 268.423 218.278 268.25L218.728 267.79C218.915 268.017 219.125 268.187 219.358 268.3C219.598 268.407 219.865 268.46 220.158 268.46C220.472 268.46 220.715 268.4 220.888 268.28C221.068 268.16 221.158 267.993 221.158 267.78C221.158 267.58 221.095 267.423 220.968 267.31C220.842 267.197 220.678 267.107 220.478 267.04C220.285 266.973 220.078 266.91 219.858 266.85C219.638 266.783 219.428 266.703 219.228 266.61C219.028 266.51 218.865 266.373 218.738 266.2C218.618 266.027 218.558 265.8 218.558 265.52C218.558 265.253 218.622 265.023 218.748 264.83C218.882 264.63 219.068 264.477 219.308 264.37C219.555 264.257 219.845 264.2 220.178 264.2C220.532 264.2 220.852 264.263 221.138 264.39C221.425 264.517 221.655 264.703 221.828 264.95L221.378 265.4C221.238 265.22 221.062 265.083 220.848 264.99C220.642 264.89 220.408 264.84 220.148 264.84C219.848 264.84 219.618 264.9 219.458 265.02C219.305 265.133 219.228 265.283 219.228 265.47C219.228 265.65 219.292 265.793 219.418 265.9C219.545 266 219.705 266.083 219.898 266.15C220.098 266.21 220.308 266.273 220.528 266.34C220.748 266.4 220.958 266.483 221.158 266.59C221.358 266.69 221.518 266.83 221.638 267.01C221.765 267.183 221.828 267.42 221.828 267.72C221.828 268.14 221.675 268.477 221.368 268.73C221.068 268.977 220.658 269.1 220.138 269.1ZM223.677 269.1C223.51 269.1 223.373 269.043 223.267 268.93C223.16 268.817 223.107 268.68 223.107 268.52C223.107 268.36 223.16 268.227 223.267 268.12C223.373 268.007 223.51 267.95 223.677 267.95C223.837 267.95 223.97 268.007 224.077 268.12C224.183 268.227 224.237 268.36 224.237 268.52C224.237 268.68 224.183 268.817 224.077 268.93C223.97 269.043 223.837 269.1 223.677 269.1ZM226.567 269.1C226.401 269.1 226.264 269.043 226.157 268.93C226.051 268.817 225.997 268.68 225.997 268.52C225.997 268.36 226.051 268.227 226.157 268.12C226.264 268.007 226.401 267.95 226.567 267.95C226.727 267.95 226.861 268.007 226.967 268.12C227.074 268.227 227.127 268.36 227.127 268.52C227.127 268.68 227.074 268.817 226.967 268.93C226.861 269.043 226.727 269.1 226.567 269.1ZM229.458 269.1C229.291 269.1 229.154 269.043 229.048 268.93C228.941 268.817 228.888 268.68 228.888 268.52C228.888 268.36 228.941 268.227 229.048 268.12C229.154 268.007 229.291 267.95 229.458 267.95C229.618 267.95 229.751 268.007 229.858 268.12C229.964 268.227 230.018 268.36 230.018 268.52C230.018 268.68 229.964 268.817 229.858 268.93C229.751 269.043 229.618 269.1 229.458 269.1Z" fill="#7A7A7A"/>
<rect x="236" y="259" width="31" height="13" rx="6.5" fill="#201E2E"/>
<path d="M243.266 267.685L245.051 265.823C245.256 265.604 245.415 265.419 245.527 265.27C245.644 265.121 245.723 264.985 245.765 264.864C245.812 264.738 245.835 264.607 245.835 264.472C245.835 264.197 245.749 263.982 245.576 263.828C245.403 263.669 245.175 263.59 244.89 263.59C244.629 263.59 244.4 263.653 244.204 263.779C244.008 263.9 243.833 264.085 243.679 264.332L243.322 264.017C243.509 263.723 243.733 263.499 243.994 263.345C244.255 263.191 244.559 263.114 244.904 263.114C245.193 263.114 245.445 263.17 245.66 263.282C245.879 263.394 246.047 263.553 246.164 263.758C246.285 263.963 246.346 264.204 246.346 264.479C246.346 264.67 246.32 264.845 246.269 265.004C246.218 265.158 246.127 265.321 245.996 265.494C245.87 265.662 245.69 265.867 245.457 266.11L243.945 267.664L243.266 267.685ZM243.266 268V267.685L243.686 267.538H246.465V268H243.266ZM249.09 268.07C248.736 268.07 248.411 267.97 248.117 267.769C247.823 267.564 247.588 267.274 247.41 266.901C247.238 266.528 247.151 266.089 247.151 265.585C247.151 265.076 247.238 264.64 247.41 264.276C247.583 263.907 247.814 263.623 248.103 263.422C248.397 263.217 248.722 263.114 249.076 263.114C249.436 263.114 249.76 263.214 250.049 263.415C250.343 263.616 250.577 263.903 250.749 264.276C250.922 264.645 251.008 265.083 251.008 265.592C251.008 266.096 250.922 266.535 250.749 266.908C250.577 267.281 250.346 267.568 250.056 267.769C249.767 267.97 249.445 268.07 249.09 268.07ZM249.076 267.587C249.352 267.587 249.594 267.51 249.804 267.356C250.019 267.197 250.187 266.971 250.308 266.677C250.43 266.378 250.49 266.014 250.49 265.585C250.49 265.16 250.43 264.801 250.308 264.507C250.187 264.208 250.019 263.982 249.804 263.828C249.594 263.674 249.352 263.597 249.076 263.597C248.806 263.597 248.563 263.674 248.348 263.828C248.138 263.982 247.973 264.206 247.851 264.5C247.73 264.794 247.669 265.156 247.669 265.585C247.669 266.014 247.73 266.378 247.851 266.677C247.973 266.971 248.138 267.197 248.348 267.356C248.563 267.51 248.806 267.587 249.076 267.587ZM251.62 267.685L253.405 265.823C253.61 265.604 253.769 265.419 253.881 265.27C253.997 265.121 254.077 264.985 254.119 264.864C254.165 264.738 254.189 264.607 254.189 264.472C254.189 264.197 254.102 263.982 253.93 263.828C253.757 263.669 253.528 263.59 253.244 263.59C252.982 263.59 252.754 263.653 252.558 263.779C252.362 263.9 252.187 264.085 252.033 264.332L251.676 264.017C251.862 263.723 252.086 263.499 252.348 263.345C252.609 263.191 252.912 263.114 253.258 263.114C253.547 263.114 253.799 263.17 254.014 263.282C254.233 263.394 254.401 263.553 254.518 263.758C254.639 263.963 254.7 264.204 254.7 264.479C254.7 264.67 254.674 264.845 254.623 265.004C254.571 265.158 254.48 265.321 254.35 265.494C254.224 265.662 254.044 265.867 253.811 266.11L252.299 267.664L251.62 267.685ZM251.62 268V267.685L252.04 267.538H254.819V268H251.62ZM256.87 268.07C256.552 268.07 256.268 268.009 256.016 267.888C255.764 267.767 255.551 267.592 255.379 267.363L255.722 267.02C255.838 267.197 255.995 267.337 256.191 267.44C256.391 267.538 256.615 267.587 256.863 267.587C257.096 267.587 257.301 267.543 257.479 267.454C257.656 267.361 257.794 267.232 257.892 267.069C257.994 266.901 258.046 266.705 258.046 266.481C258.046 266.252 257.997 266.056 257.899 265.893C257.801 265.725 257.668 265.597 257.5 265.508C257.332 265.419 257.143 265.375 256.933 265.375C256.732 265.375 256.548 265.403 256.38 265.459C256.216 265.51 256.067 265.594 255.932 265.711L255.918 265.375C256.002 265.282 256.097 265.205 256.205 265.144C256.312 265.083 256.431 265.037 256.562 265.004C256.697 264.971 256.846 264.955 257.01 264.955C257.332 264.955 257.609 265.025 257.843 265.165C258.076 265.3 258.253 265.485 258.375 265.718C258.501 265.951 258.564 266.215 258.564 266.509C258.564 266.812 258.491 267.081 258.347 267.314C258.202 267.547 258.001 267.732 257.745 267.867C257.493 268.002 257.201 268.07 256.87 268.07ZM255.932 265.711L255.659 265.431L255.869 263.184H256.338L256.107 265.48L255.932 265.711ZM255.995 263.639L255.869 263.184H258.347V263.639H255.995Z" fill="#696969"/>
<defs>
<linearGradient id="paint0_linear_9_199" x1="136" y1="399.318" x2="136" y2="269" gradientUnits="userSpaceOnUse">
<stop stop-color="#636363" stop-opacity="0"/>
<stop offset="1" stop-color="#636363"/>
</linearGradient>
</defs>
</svg>
