<svg width="1234" height="193" viewBox="0 0 1234 193" fill="none" xmlns="http://www.w3.org/2000/svg">
<path d="M0 137H728C743.464 137 756 149.536 756 165C756 180.464 743.464 193 728 193H0V137Z" fill="#200F93" fill-opacity="0.3"/>
<path d="M749 169L1234 169" stroke="url(#paint0_linear_399_138)" stroke-width="6" stroke-dasharray="12 25"/>
<path d="M305.997 164C304.892 164 303.997 164.895 303.997 166C303.997 167.105 304.892 168 305.997 168V164ZM490.411 167.414C491.192 166.633 491.192 165.367 490.411 164.586L477.683 151.858C476.902 151.077 475.636 151.077 474.855 151.858C474.074 152.639 474.074 153.905 474.855 154.686L486.168 166L474.855 177.314C474.074 178.095 474.074 179.361 474.855 180.142C475.636 180.923 476.902 180.923 477.683 180.142L490.411 167.414ZM305.997 168H488.997V164H305.997V168Z" fill="#F1F1F1"/>
<path d="M519 166H662" stroke="url(#paint1_linear_399_138)" stroke-width="9" stroke-linecap="round"/>
<rect x="203" y="137" width="56" height="56" rx="28" fill="#200F93"/>
<rect x="217" y="165.707" width="5" height="14" rx="2.5" transform="rotate(-44.0462 217 165.707)" fill="#D9D9D9"/>
<rect x="241.249" y="155" width="5" height="24.8897" rx="2.5" transform="rotate(46.2043 241.249 155)" fill="#D9D9D9"/>
<rect x="700" y="137" width="56" height="56" rx="28" fill="#200F93"/>
<rect x="709" y="162" width="7" height="7" rx="3.5" fill="#F1F1F1"/>
<rect x="724" y="162" width="7" height="7" rx="3.5" fill="#F1F1F1"/>
<rect x="739" y="162" width="7" height="7" rx="3.5" fill="#F1F1F1"/>
<path d="M140.2 40V36H148.24C149.653 36 150.747 35.56 151.52 34.68C152.293 33.8 152.68 32.7867 152.68 31.64C152.68 30.8667 152.507 30.1467 152.16 29.48C151.813 28.8133 151.307 28.28 150.64 27.88C149.973 27.48 149.173 27.28 148.24 27.28H140.2V23.28H147.56C148.76 23.28 149.72 22.9733 150.44 22.36C151.16 21.7467 151.52 20.84 151.52 19.64C151.52 18.44 151.16 17.5333 150.44 16.92C149.72 16.3067 148.76 16 147.56 16H140.2V12H147.68C149.573 12 151.147 12.3467 152.4 13.04C153.653 13.7333 154.587 14.6267 155.2 15.72C155.813 16.8133 156.12 17.9867 156.12 19.24C156.12 20.7067 155.707 22 154.88 23.12C154.08 24.24 152.893 25.1467 151.32 25.84L151.68 24.4C153.44 25.12 154.813 26.1333 155.8 27.44C156.787 28.7467 157.28 30.28 157.28 32.04C157.28 33.48 156.92 34.8 156.2 36C155.507 37.2 154.467 38.1733 153.08 38.92C151.72 39.64 150.04 40 148.04 40H140.2ZM137.04 40V12H141.64V40H137.04ZM159.843 40L171.363 12H174.563L186.003 40H181.043L172.083 17.32H173.763L164.723 40H159.843ZM165.523 34.6V30.6H180.363V34.6H165.523ZM200.737 40.4C198.71 40.4 196.83 40.04 195.097 39.32C193.39 38.5733 191.897 37.5467 190.617 36.24C189.337 34.9067 188.35 33.3733 187.657 31.64C186.963 29.88 186.617 28 186.617 26C186.617 24 186.963 22.1333 187.657 20.4C188.35 18.64 189.337 17.1067 190.617 15.8C191.897 14.4933 193.39 13.4667 195.097 12.72C196.83 11.9733 198.71 11.6 200.737 11.6C203.003 11.6 204.963 11.9733 206.617 12.72C208.27 13.4667 209.737 14.48 211.017 15.76L207.897 18.88C207.07 17.9733 206.057 17.2667 204.857 16.76C203.683 16.2533 202.31 16 200.737 16C199.35 16 198.083 16.24 196.937 16.72C195.79 17.2 194.79 17.8933 193.937 18.8C193.11 19.68 192.47 20.7333 192.017 21.96C191.563 23.1867 191.337 24.5333 191.337 26C191.337 27.4667 191.563 28.8133 192.017 30.04C192.47 31.2667 193.11 32.3333 193.937 33.24C194.79 34.12 195.79 34.8 196.937 35.28C198.083 35.76 199.35 36 200.737 36C202.443 36 203.883 35.7467 205.057 35.24C206.257 34.7067 207.27 33.9867 208.097 33.08L211.217 36.2C209.937 37.5067 208.43 38.5333 206.697 39.28C204.963 40.0267 202.977 40.4 200.737 40.4ZM231.129 40.4C228.916 40.4 227.036 40 225.489 39.2C223.942 38.4 222.556 37.2267 221.329 35.68L224.449 32.56C225.222 33.68 226.142 34.56 227.209 35.2C228.276 35.8133 229.636 36.12 231.289 36.12C232.836 36.12 234.062 35.8 234.969 35.16C235.902 34.52 236.369 33.64 236.369 32.52C236.369 31.5867 236.129 30.8267 235.649 30.24C235.169 29.6533 234.529 29.1733 233.729 28.8C232.956 28.4 232.089 28.0533 231.129 27.76C230.196 27.44 229.249 27.0933 228.289 26.72C227.356 26.32 226.489 25.8267 225.689 25.24C224.916 24.6533 224.289 23.8933 223.809 22.96C223.329 22.0267 223.089 20.84 223.089 19.4C223.089 17.7467 223.489 16.3467 224.289 15.2C225.116 14.0267 226.222 13.1333 227.609 12.52C228.996 11.9067 230.542 11.6 232.249 11.6C234.089 11.6 235.729 11.96 237.169 12.68C238.636 13.4 239.822 14.32 240.729 15.44L237.609 18.56C236.809 17.6533 235.969 16.9867 235.089 16.56C234.236 16.1067 233.249 15.88 232.129 15.88C230.742 15.88 229.649 16.16 228.849 16.72C228.076 17.28 227.689 18.0667 227.689 19.08C227.689 19.9333 227.929 20.6267 228.409 21.16C228.889 21.6667 229.516 22.1067 230.289 22.48C231.089 22.8267 231.956 23.16 232.889 23.48C233.849 23.8 234.796 24.16 235.729 24.56C236.689 24.96 237.556 25.48 238.329 26.12C239.129 26.7333 239.769 27.5333 240.249 28.52C240.729 29.5067 240.969 30.7467 240.969 32.24C240.969 34.7467 240.076 36.7333 238.289 38.2C236.529 39.6667 234.142 40.4 231.129 40.4ZM251.385 40V12.8H255.985V40H251.385ZM242.265 16.2V12H265.105V16.2H242.265ZM269.11 40V12H273.71V40H269.11ZM277.854 37.28L288.174 26.32C289.028 25.4133 289.721 24.6 290.254 23.88C290.788 23.16 291.174 22.48 291.414 21.84C291.654 21.2 291.774 20.5467 291.774 19.88C291.774 18.6267 291.361 17.6533 290.534 16.96C289.734 16.24 288.708 15.88 287.454 15.88C286.121 15.88 284.948 16.2133 283.934 16.88C282.921 17.5467 282.014 18.5867 281.214 20L278.014 17.36C279.108 15.4667 280.454 14.04 282.054 13.08C283.654 12.0933 285.508 11.6 287.614 11.6C289.348 11.6 290.868 11.9467 292.174 12.64C293.481 13.3333 294.494 14.3067 295.214 15.56C295.934 16.7867 296.294 18.2133 296.294 19.84C296.294 21.0133 296.148 22.0667 295.854 23C295.588 23.9067 295.121 24.8267 294.454 25.76C293.788 26.6667 292.868 27.7333 291.694 28.96L283.774 37.16L277.854 37.28ZM277.854 40V37.28L281.814 35.88H296.854V40H277.854ZM304.575 40V35.8H311.935C313.855 35.8 315.535 35.3867 316.975 34.56C318.442 33.7333 319.575 32.5867 320.375 31.12C321.202 29.6267 321.615 27.9067 321.615 25.96C321.615 24.04 321.202 22.3467 320.375 20.88C319.548 19.4133 318.402 18.2667 316.935 17.44C315.495 16.6133 313.828 16.2 311.935 16.2H304.575V12H312.055C314.082 12 315.962 12.36 317.695 13.08C319.428 13.7733 320.935 14.76 322.215 16.04C323.522 17.2933 324.535 18.7733 325.255 20.48C325.975 22.16 326.335 24 326.335 26C326.335 27.9733 325.975 29.8133 325.255 31.52C324.535 33.2267 323.535 34.72 322.255 36C320.975 37.2533 319.468 38.24 317.735 38.96C316.002 39.6533 314.135 40 312.135 40H304.575ZM301.415 40V12H306.015V40H301.415Z" fill="#F1F1F1"/>
<path d="M136.2 83V65.8H137.5L144.925 77.975H144L151.425 65.8H152.725V83H150.875V69L151.3 69.1L145.1 79.275H143.8L137.6 69.1L138.025 69V83H136.2ZM162.098 83.25C160.915 83.25 159.857 82.9833 158.923 82.45C157.99 81.9167 157.248 81.1833 156.698 80.25C156.165 79.3167 155.898 78.2667 155.898 77.1C155.898 75.95 156.165 74.9167 156.698 74C157.232 73.0667 157.957 72.3333 158.873 71.8C159.79 71.2667 160.815 71 161.948 71C163.015 71 163.957 71.2417 164.773 71.725C165.607 72.2083 166.257 72.8833 166.723 73.75C167.207 74.6 167.448 75.5833 167.448 76.7C167.448 76.8333 167.44 76.9917 167.423 77.175C167.407 77.3417 167.373 77.5417 167.323 77.775H157.148V76.275H166.373L165.748 76.825C165.765 75.9583 165.615 75.2167 165.298 74.6C164.998 73.9667 164.557 73.4833 163.973 73.15C163.407 72.8 162.715 72.625 161.898 72.625C161.048 72.625 160.307 72.8083 159.673 73.175C159.04 73.5417 158.54 74.0583 158.173 74.725C157.823 75.375 157.648 76.15 157.648 77.05C157.648 77.95 157.832 78.7417 158.198 79.425C158.582 80.1083 159.107 80.6417 159.773 81.025C160.457 81.4083 161.24 81.6 162.123 81.6C162.84 81.6 163.498 81.475 164.098 81.225C164.698 80.9583 165.207 80.5667 165.623 80.05L166.748 81.2C166.198 81.85 165.515 82.3583 164.698 82.725C163.898 83.075 163.032 83.25 162.098 83.25ZM178.676 83V76.1C178.676 75.0667 178.367 74.2333 177.751 73.6C177.151 72.95 176.351 72.625 175.351 72.625C174.667 72.625 174.067 72.775 173.551 73.075C173.034 73.375 172.626 73.7833 172.326 74.3C172.026 74.8167 171.876 75.4083 171.876 76.075L171.076 75.625C171.076 74.7417 171.284 73.95 171.701 73.25C172.117 72.55 172.676 72 173.376 71.6C174.092 71.2 174.909 71 175.826 71C176.726 71 177.526 71.2167 178.226 71.65C178.926 72.0833 179.467 72.6667 179.851 73.4C180.251 74.1333 180.451 74.9333 180.451 75.8V83H178.676ZM170.126 83V71.25H171.876V83H170.126ZM185.403 83V66.3H187.153V83H185.403ZM182.428 72.825V71.25H190.103V72.825H182.428ZM192.513 83V71.25H194.288V83H192.513ZM193.388 68.7C193.055 68.7 192.772 68.5833 192.538 68.35C192.305 68.1 192.188 67.8083 192.188 67.475C192.188 67.125 192.305 66.8333 192.538 66.6C192.772 66.3667 193.055 66.25 193.388 66.25C193.755 66.25 194.047 66.3667 194.263 66.6C194.497 66.8333 194.613 67.125 194.613 67.475C194.613 67.8083 194.497 68.1 194.263 68.35C194.047 68.5833 193.755 68.7 193.388 68.7ZM203.161 83.25C202.027 83.25 200.994 82.975 200.061 82.425C199.144 81.875 198.411 81.1333 197.861 80.2C197.327 79.2667 197.061 78.225 197.061 77.075C197.061 75.9417 197.327 74.9167 197.861 74C198.411 73.0833 199.144 72.3583 200.061 71.825C200.994 71.275 202.027 71 203.161 71C204.311 71 205.344 71.2667 206.261 71.8C207.177 72.3333 207.902 73.0667 208.436 74C208.986 74.9167 209.261 75.9417 209.261 77.075C209.261 78.2417 208.986 79.2917 208.436 80.225C207.902 81.1417 207.177 81.875 206.261 82.425C205.344 82.975 204.311 83.25 203.161 83.25ZM203.161 81.55C203.994 81.55 204.727 81.3583 205.361 80.975C206.011 80.5917 206.519 80.0583 206.886 79.375C207.269 78.6917 207.461 77.925 207.461 77.075C207.461 76.225 207.269 75.475 206.886 74.825C206.519 74.1583 206.011 73.6333 205.361 73.25C204.727 72.8667 203.994 72.675 203.161 72.675C202.344 72.675 201.611 72.8667 200.961 73.25C200.311 73.6333 199.802 74.1583 199.436 74.825C199.069 75.475 198.886 76.225 198.886 77.075C198.886 77.9417 199.069 78.7167 199.436 79.4C199.802 80.0667 200.311 80.5917 200.961 80.975C201.611 81.3583 202.344 81.55 203.161 81.55ZM220.595 83V76.1C220.595 75.0667 220.286 74.2333 219.67 73.6C219.07 72.95 218.27 72.625 217.27 72.625C216.586 72.625 215.986 72.775 215.47 73.075C214.953 73.375 214.545 73.7833 214.245 74.3C213.945 74.8167 213.795 75.4083 213.795 76.075L212.995 75.625C212.995 74.7417 213.203 73.95 213.62 73.25C214.036 72.55 214.595 72 215.295 71.6C216.011 71.2 216.828 71 217.745 71C218.645 71 219.445 71.2167 220.145 71.65C220.845 72.0833 221.386 72.6667 221.77 73.4C222.17 74.1333 222.37 74.9333 222.37 75.8V83H220.595ZM212.045 83V71.25H213.795V83H212.045ZM232.614 83.25C232.198 83.25 231.856 83.1083 231.589 82.825C231.339 82.5417 231.214 82.2083 231.214 81.825C231.214 81.4083 231.339 81.0667 231.589 80.8C231.856 80.5167 232.198 80.375 232.614 80.375C233.014 80.375 233.348 80.5167 233.614 80.8C233.898 81.0667 234.039 81.4083 234.039 81.825C234.039 82.2083 233.898 82.5417 233.614 82.825C233.348 83.1083 233.014 83.25 232.614 83.25ZM232.614 75.375C232.198 75.375 231.856 75.2333 231.589 74.95C231.339 74.6667 231.214 74.3333 231.214 73.95C231.214 73.5333 231.339 73.1917 231.589 72.925C231.856 72.6583 232.198 72.525 232.614 72.525C233.014 72.525 233.348 72.6583 233.614 72.925C233.898 73.1917 234.039 73.5333 234.039 73.95C234.039 74.3333 233.898 74.6667 233.614 74.95C233.348 75.2333 233.014 75.375 232.614 75.375ZM244.724 83V81.375H250.174C251.307 81.375 252.199 81.0583 252.849 80.425C253.499 79.7917 253.824 79 253.824 78.05C253.824 77.4333 253.682 76.875 253.399 76.375C253.115 75.875 252.707 75.4833 252.174 75.2C251.657 74.9 251.04 74.75 250.324 74.75H244.724V73.15H250.049C250.982 73.15 251.715 72.9 252.249 72.4C252.799 71.9 253.074 71.1917 253.074 70.275C253.074 69.3583 252.782 68.65 252.199 68.15C251.615 67.65 250.832 67.4 249.849 67.4H244.724V65.8H249.899C250.965 65.8 251.874 65.9917 252.624 66.375C253.374 66.7583 253.94 67.275 254.324 67.925C254.707 68.575 254.899 69.3083 254.899 70.125C254.899 71.0917 254.649 71.925 254.149 72.625C253.649 73.3083 252.915 73.8333 251.949 74.2L252.124 73.6C253.24 73.95 254.107 74.525 254.724 75.325C255.357 76.125 255.674 77.075 255.674 78.175C255.674 79.0917 255.449 79.9167 254.999 80.65C254.565 81.3667 253.924 81.9417 253.074 82.375C252.24 82.7917 251.232 83 250.049 83H244.724ZM243.549 83V65.8H245.374V83H243.549ZM258.749 83V71.25H260.524V83H258.749ZM259.624 68.7C259.29 68.7 259.007 68.5833 258.774 68.35C258.54 68.1 258.424 67.8083 258.424 67.475C258.424 67.125 258.54 66.8333 258.774 66.6C259.007 66.3667 259.29 66.25 259.624 66.25C259.99 66.25 260.282 66.3667 260.499 66.6C260.732 66.8333 260.849 67.125 260.849 67.475C260.849 67.8083 260.732 68.1 260.499 68.35C260.282 68.5833 259.99 68.7 259.624 68.7ZM269.496 83.25C268.313 83.25 267.254 82.9833 266.321 82.45C265.388 81.9167 264.646 81.1833 264.096 80.25C263.563 79.3167 263.296 78.2667 263.296 77.1C263.296 75.95 263.563 74.9167 264.096 74C264.629 73.0667 265.354 72.3333 266.271 71.8C267.188 71.2667 268.213 71 269.346 71C270.413 71 271.354 71.2417 272.171 71.725C273.004 72.2083 273.654 72.8833 274.121 73.75C274.604 74.6 274.846 75.5833 274.846 76.7C274.846 76.8333 274.838 76.9917 274.821 77.175C274.804 77.3417 274.771 77.5417 274.721 77.775H264.546V76.275H273.771L273.146 76.825C273.163 75.9583 273.013 75.2167 272.696 74.6C272.396 73.9667 271.954 73.4833 271.371 73.15C270.804 72.8 270.113 72.625 269.296 72.625C268.446 72.625 267.704 72.8083 267.071 73.175C266.438 73.5417 265.938 74.0583 265.571 74.725C265.221 75.375 265.046 76.15 265.046 77.05C265.046 77.95 265.229 78.7417 265.596 79.425C265.979 80.1083 266.504 80.6417 267.171 81.025C267.854 81.4083 268.638 81.6 269.521 81.6C270.238 81.6 270.896 81.475 271.496 81.225C272.096 80.9583 272.604 80.5667 273.021 80.05L274.146 81.2C273.596 81.85 272.913 82.3583 272.096 82.725C271.296 83.075 270.429 83.25 269.496 83.25ZM286.073 83V76.1C286.073 75.0667 285.765 74.2333 285.148 73.6C284.548 72.95 283.748 72.625 282.748 72.625C282.065 72.625 281.465 72.775 280.948 73.075C280.431 73.375 280.023 73.7833 279.723 74.3C279.423 74.8167 279.273 75.4083 279.273 76.075L278.473 75.625C278.473 74.7417 278.681 73.95 279.098 73.25C279.515 72.55 280.073 72 280.773 71.6C281.49 71.2 282.306 71 283.223 71C284.123 71 284.923 71.2167 285.623 71.65C286.323 72.0833 286.865 72.6667 287.248 73.4C287.648 74.1333 287.848 74.9333 287.848 75.8V83H286.073ZM277.523 83V71.25H279.273V83H277.523Z" fill="#7A7A7A"/>
<rect x="343" y="11" width="61" height="29" rx="14.5" fill="#201E2E"/>
<path d="M356.57 30.325L360.395 26.335C360.835 25.865 361.175 25.47 361.415 25.15C361.665 24.83 361.835 24.54 361.925 24.28C362.025 24.01 362.075 23.73 362.075 23.44C362.075 22.85 361.89 22.39 361.52 22.06C361.15 21.72 360.66 21.55 360.05 21.55C359.49 21.55 359 21.685 358.58 21.955C358.16 22.215 357.785 22.61 357.455 23.14L356.69 22.465C357.09 21.835 357.57 21.355 358.13 21.025C358.69 20.695 359.34 20.53 360.08 20.53C360.7 20.53 361.24 20.65 361.7 20.89C362.17 21.13 362.53 21.47 362.78 21.91C363.04 22.35 363.17 22.865 363.17 23.455C363.17 23.865 363.115 24.24 363.005 24.58C362.895 24.91 362.7 25.26 362.42 25.63C362.15 25.99 361.765 26.43 361.265 26.95L358.025 30.28L356.57 30.325ZM356.57 31V30.325L357.47 30.01H363.425V31H356.57ZM369.051 31.15C368.291 31.15 367.596 30.935 366.966 30.505C366.336 30.065 365.831 29.445 365.451 28.645C365.081 27.845 364.896 26.905 364.896 25.825C364.896 24.735 365.081 23.8 365.451 23.02C365.821 22.23 366.316 21.62 366.936 21.19C367.566 20.75 368.261 20.53 369.021 20.53C369.791 20.53 370.486 20.745 371.106 21.175C371.736 21.605 372.236 22.22 372.606 23.02C372.976 23.81 373.161 24.75 373.161 25.84C373.161 26.92 372.976 27.86 372.606 28.66C372.236 29.46 371.741 30.075 371.121 30.505C370.501 30.935 369.811 31.15 369.051 31.15ZM369.021 30.115C369.611 30.115 370.131 29.95 370.581 29.62C371.041 29.28 371.401 28.795 371.661 28.165C371.921 27.525 372.051 26.745 372.051 25.825C372.051 24.915 371.921 24.145 371.661 23.515C371.401 22.875 371.041 22.39 370.581 22.06C370.131 21.73 369.611 21.565 369.021 21.565C368.441 21.565 367.921 21.73 367.461 22.06C367.011 22.39 366.656 22.87 366.396 23.5C366.136 24.13 366.006 24.905 366.006 25.825C366.006 26.745 366.136 27.525 366.396 28.165C366.656 28.795 367.011 29.28 367.461 29.62C367.921 29.95 368.441 30.115 369.021 30.115ZM374.47 30.325L378.295 26.335C378.735 25.865 379.075 25.47 379.315 25.15C379.565 24.83 379.735 24.54 379.825 24.28C379.925 24.01 379.975 23.73 379.975 23.44C379.975 22.85 379.79 22.39 379.42 22.06C379.05 21.72 378.56 21.55 377.95 21.55C377.39 21.55 376.9 21.685 376.48 21.955C376.06 22.215 375.685 22.61 375.355 23.14L374.59 22.465C374.99 21.835 375.47 21.355 376.03 21.025C376.59 20.695 377.24 20.53 377.98 20.53C378.6 20.53 379.14 20.65 379.6 20.89C380.07 21.13 380.43 21.47 380.68 21.91C380.94 22.35 381.07 22.865 381.07 23.455C381.07 23.865 381.015 24.24 380.905 24.58C380.795 24.91 380.6 25.26 380.32 25.63C380.05 25.99 379.665 26.43 379.165 26.95L375.925 30.28L374.47 30.325ZM374.47 31V30.325L375.37 30.01H381.325V31H374.47ZM382.571 30.325L386.396 26.335C386.836 25.865 387.176 25.47 387.416 25.15C387.666 24.83 387.836 24.54 387.926 24.28C388.026 24.01 388.076 23.73 388.076 23.44C388.076 22.85 387.891 22.39 387.521 22.06C387.151 21.72 386.661 21.55 386.051 21.55C385.491 21.55 385.001 21.685 384.581 21.955C384.161 22.215 383.786 22.61 383.456 23.14L382.691 22.465C383.091 21.835 383.571 21.355 384.131 21.025C384.691 20.695 385.341 20.53 386.081 20.53C386.701 20.53 387.241 20.65 387.701 20.89C388.171 21.13 388.531 21.47 388.781 21.91C389.041 22.35 389.171 22.865 389.171 23.455C389.171 23.865 389.116 24.24 389.006 24.58C388.896 24.91 388.701 25.26 388.421 25.63C388.151 25.99 387.766 26.43 387.266 26.95L384.026 30.28L382.571 30.325ZM382.571 31V30.325L383.471 30.01H389.426V31H382.571Z" fill="#696969"/>
<path d="M615.2 40V36H623.24C624.653 36 625.747 35.56 626.52 34.68C627.293 33.8 627.68 32.7867 627.68 31.64C627.68 30.8667 627.507 30.1467 627.16 29.48C626.813 28.8133 626.307 28.28 625.64 27.88C624.973 27.48 624.173 27.28 623.24 27.28H615.2V23.28H622.56C623.76 23.28 624.72 22.9733 625.44 22.36C626.16 21.7467 626.52 20.84 626.52 19.64C626.52 18.44 626.16 17.5333 625.44 16.92C624.72 16.3067 623.76 16 622.56 16H615.2V12H622.68C624.573 12 626.147 12.3467 627.4 13.04C628.653 13.7333 629.587 14.6267 630.2 15.72C630.813 16.8133 631.12 17.9867 631.12 19.24C631.12 20.7067 630.707 22 629.88 23.12C629.08 24.24 627.893 25.1467 626.32 25.84L626.68 24.4C628.44 25.12 629.813 26.1333 630.8 27.44C631.787 28.7467 632.28 30.28 632.28 32.04C632.28 33.48 631.92 34.8 631.2 36C630.507 37.2 629.467 38.1733 628.08 38.92C626.72 39.64 625.04 40 623.04 40H615.2ZM612.04 40V12H616.64V40H612.04ZM647.723 40.4C645.616 40.4 643.723 39.92 642.043 38.96C640.363 38 639.029 36.6933 638.043 35.04C637.083 33.36 636.603 31.4667 636.603 29.36V12H641.203V29.32C641.203 30.68 641.483 31.8667 642.043 32.88C642.629 33.8667 643.416 34.64 644.403 35.2C645.389 35.7333 646.496 36 647.723 36C648.976 36 650.083 35.7333 651.043 35.2C652.003 34.64 652.763 33.8667 653.323 32.88C653.883 31.8667 654.163 30.6933 654.163 29.36V12H658.763V29.4C658.763 31.5067 658.283 33.3867 657.323 35.04C656.363 36.6933 655.056 38 653.403 38.96C651.749 39.92 649.856 40.4 647.723 40.4ZM671.228 40V12.8H675.828V40H671.228ZM662.108 16.2V12H684.948V16.2H662.108ZM696.337 40V12H699.537L711.177 31.16H709.097L720.737 12H723.937V40H719.337V20.08L720.377 20.36L711.737 34.56H708.537L699.897 20.36L700.937 20.08V40H696.337ZM730.009 40V12H733.209L744.849 31.16H742.769L754.409 12H757.609V40H753.009V20.08L754.049 20.36L745.409 34.56H742.209L733.569 20.36L734.609 20.08V40H730.009ZM763.681 40V12H768.281V40H763.681Z" fill="#F1F1F1"/>
<path d="M611.2 83V65.8H613.025V83H611.2ZM612.4 83V81.325H622.525V83H612.4ZM612.4 75V73.375H621.725V75H612.4ZM612.4 67.475V65.8H622.375V67.475H612.4ZM634.047 83V76.1C634.047 75.0667 633.738 74.2333 633.122 73.6C632.522 72.95 631.722 72.625 630.722 72.625C630.038 72.625 629.438 72.775 628.922 73.075C628.405 73.375 627.997 73.7833 627.697 74.3C627.397 74.8167 627.247 75.4083 627.247 76.075L626.447 75.625C626.447 74.7417 626.655 73.95 627.072 73.25C627.488 72.55 628.047 72 628.747 71.6C629.463 71.2 630.28 71 631.197 71C632.097 71 632.897 71.2167 633.597 71.65C634.297 72.0833 634.838 72.6667 635.222 73.4C635.622 74.1333 635.822 74.9333 635.822 75.8V83H634.047ZM625.497 83V71.25H627.247V83H625.497ZM649.816 83.25C648.666 83.25 647.625 82.9833 646.691 82.45C645.775 81.9 645.041 81.1583 644.491 80.225C643.958 79.2917 643.691 78.25 643.691 77.1C643.691 75.95 643.958 74.9167 644.491 74C645.041 73.0667 645.775 72.3333 646.691 71.8C647.625 71.2667 648.666 71 649.816 71C650.7 71 651.525 71.1667 652.291 71.5C653.058 71.8333 653.708 72.3 654.241 72.9L653.091 74.075C652.691 73.625 652.208 73.2833 651.641 73.05C651.075 72.8 650.466 72.675 649.816 72.675C648.983 72.675 648.241 72.8667 647.591 73.25C646.941 73.6333 646.433 74.1583 646.066 74.825C645.7 75.475 645.516 76.2333 645.516 77.1C645.516 77.95 645.7 78.7167 646.066 79.4C646.433 80.0667 646.941 80.5917 647.591 80.975C648.241 81.3583 648.983 81.55 649.816 81.55C650.483 81.55 651.1 81.4333 651.666 81.2C652.233 80.95 652.716 80.6 653.116 80.15L654.291 81.325C653.741 81.9417 653.075 82.4167 652.291 82.75C651.525 83.0833 650.7 83.25 649.816 83.25ZM661.852 83.25C660.719 83.25 659.685 82.975 658.752 82.425C657.835 81.875 657.102 81.1333 656.552 80.2C656.019 79.2667 655.752 78.225 655.752 77.075C655.752 75.9417 656.019 74.9167 656.552 74C657.102 73.0833 657.835 72.3583 658.752 71.825C659.685 71.275 660.719 71 661.852 71C663.002 71 664.035 71.2667 664.952 71.8C665.869 72.3333 666.594 73.0667 667.127 74C667.677 74.9167 667.952 75.9417 667.952 77.075C667.952 78.2417 667.677 79.2917 667.127 80.225C666.594 81.1417 665.869 81.875 664.952 82.425C664.035 82.975 663.002 83.25 661.852 83.25ZM661.852 81.55C662.685 81.55 663.419 81.3583 664.052 80.975C664.702 80.5917 665.21 80.0583 665.577 79.375C665.96 78.6917 666.152 77.925 666.152 77.075C666.152 76.225 665.96 75.475 665.577 74.825C665.21 74.1583 664.702 73.6333 664.052 73.25C663.419 72.8667 662.685 72.675 661.852 72.675C661.035 72.675 660.302 72.8667 659.652 73.25C659.002 73.6333 658.494 74.1583 658.127 74.825C657.76 75.475 657.577 76.225 657.577 77.075C657.577 77.9417 657.76 78.7167 658.127 79.4C658.494 80.0667 659.002 80.5917 659.652 80.975C660.302 81.3583 661.035 81.55 661.852 81.55ZM675.386 83.25C674.436 83.25 673.586 83.0333 672.836 82.6C672.086 82.15 671.494 81.5417 671.061 80.775C670.644 80.0083 670.436 79.1083 670.436 78.075V71.25H672.211V78C672.211 78.7167 672.336 79.3417 672.586 79.875C672.853 80.4083 673.228 80.825 673.711 81.125C674.194 81.425 674.753 81.575 675.386 81.575C676.369 81.575 677.144 81.25 677.711 80.6C678.294 79.95 678.586 79.0833 678.586 78V71.25H680.336V78.075C680.336 79.0917 680.128 79.9917 679.711 80.775C679.294 81.5583 678.711 82.1667 677.961 82.6C677.211 83.0333 676.353 83.25 675.386 83.25ZM683.602 83V71.25H685.352V83H683.602ZM685.352 76.15L684.627 75.825C684.627 74.3417 684.985 73.1667 685.702 72.3C686.435 71.4333 687.435 71 688.702 71C689.285 71 689.819 71.1083 690.302 71.325C690.785 71.525 691.235 71.85 691.652 72.3L690.502 73.525C690.219 73.2083 689.902 72.9833 689.552 72.85C689.219 72.7167 688.835 72.65 688.402 72.65C687.502 72.65 686.769 72.95 686.202 73.55C685.635 74.1333 685.352 75 685.352 76.15ZM696.846 83.25C696.212 83.25 695.604 83.1667 695.021 83C694.437 82.8167 693.904 82.5667 693.421 82.25C692.954 81.9333 692.546 81.5583 692.196 81.125L693.321 79.975C693.787 80.5417 694.312 80.9667 694.896 81.25C695.496 81.5167 696.162 81.65 696.896 81.65C697.679 81.65 698.287 81.5 698.721 81.2C699.171 80.9 699.396 80.4833 699.396 79.95C699.396 79.45 699.237 79.0583 698.921 78.775C698.604 78.4917 698.196 78.2667 697.696 78.1C697.212 77.9333 696.696 77.775 696.146 77.625C695.596 77.4583 695.071 77.2583 694.571 77.025C694.071 76.775 693.662 76.4333 693.346 76C693.046 75.5667 692.896 75 692.896 74.3C692.896 73.6333 693.054 73.0583 693.371 72.575C693.704 72.075 694.171 71.6917 694.771 71.425C695.387 71.1417 696.112 71 696.946 71C697.829 71 698.629 71.1583 699.346 71.475C700.062 71.7917 700.637 72.2583 701.071 72.875L699.946 74C699.596 73.55 699.154 73.2083 698.621 72.975C698.104 72.725 697.521 72.6 696.871 72.6C696.121 72.6 695.546 72.75 695.146 73.05C694.762 73.3333 694.571 73.7083 694.571 74.175C694.571 74.625 694.729 74.9833 695.046 75.25C695.362 75.5 695.762 75.7083 696.246 75.875C696.746 76.025 697.271 76.1833 697.821 76.35C698.371 76.5 698.896 76.7083 699.396 76.975C699.896 77.225 700.296 77.575 700.596 78.025C700.912 78.4583 701.071 79.05 701.071 79.8C701.071 80.85 700.687 81.6917 699.921 82.325C699.171 82.9417 698.146 83.25 696.846 83.25ZM705.691 83.25C705.275 83.25 704.933 83.1083 704.666 82.825C704.4 82.5417 704.266 82.2 704.266 81.8C704.266 81.4 704.4 81.0667 704.666 80.8C704.933 80.5167 705.275 80.375 705.691 80.375C706.091 80.375 706.425 80.5167 706.691 80.8C706.958 81.0667 707.091 81.4 707.091 81.8C707.091 82.2 706.958 82.5417 706.691 82.825C706.425 83.1083 706.091 83.25 705.691 83.25ZM712.918 83.25C712.501 83.25 712.16 83.1083 711.893 82.825C711.626 82.5417 711.493 82.2 711.493 81.8C711.493 81.4 711.626 81.0667 711.893 80.8C712.16 80.5167 712.501 80.375 712.918 80.375C713.318 80.375 713.651 80.5167 713.918 80.8C714.185 81.0667 714.318 81.4 714.318 81.8C714.318 82.2 714.185 82.5417 713.918 82.825C713.651 83.1083 713.318 83.25 712.918 83.25ZM720.145 83.25C719.728 83.25 719.386 83.1083 719.12 82.825C718.853 82.5417 718.72 82.2 718.72 81.8C718.72 81.4 718.853 81.0667 719.12 80.8C719.386 80.5167 719.728 80.375 720.145 80.375C720.545 80.375 720.878 80.5167 721.145 80.8C721.411 81.0667 721.545 81.4 721.545 81.8C721.545 82.2 721.411 82.5417 721.145 82.825C720.878 83.1083 720.545 83.25 720.145 83.25Z" fill="#7A7A7A"/>
<rect x="787" y="11" width="61" height="29" rx="14.5" fill="#201E2E"/>
<path d="M800.57 30.325L804.395 26.335C804.835 25.865 805.175 25.47 805.415 25.15C805.665 24.83 805.835 24.54 805.925 24.28C806.025 24.01 806.075 23.73 806.075 23.44C806.075 22.85 805.89 22.39 805.52 22.06C805.15 21.72 804.66 21.55 804.05 21.55C803.49 21.55 803 21.685 802.58 21.955C802.16 22.215 801.785 22.61 801.455 23.14L800.69 22.465C801.09 21.835 801.57 21.355 802.13 21.025C802.69 20.695 803.34 20.53 804.08 20.53C804.7 20.53 805.24 20.65 805.7 20.89C806.17 21.13 806.53 21.47 806.78 21.91C807.04 22.35 807.17 22.865 807.17 23.455C807.17 23.865 807.115 24.24 807.005 24.58C806.895 24.91 806.7 25.26 806.42 25.63C806.15 25.99 805.765 26.43 805.265 26.95L802.025 30.28L800.57 30.325ZM800.57 31V30.325L801.47 30.01H807.425V31H800.57ZM813.051 31.15C812.291 31.15 811.596 30.935 810.966 30.505C810.336 30.065 809.831 29.445 809.451 28.645C809.081 27.845 808.896 26.905 808.896 25.825C808.896 24.735 809.081 23.8 809.451 23.02C809.821 22.23 810.316 21.62 810.936 21.19C811.566 20.75 812.261 20.53 813.021 20.53C813.791 20.53 814.486 20.745 815.106 21.175C815.736 21.605 816.236 22.22 816.606 23.02C816.976 23.81 817.161 24.75 817.161 25.84C817.161 26.92 816.976 27.86 816.606 28.66C816.236 29.46 815.741 30.075 815.121 30.505C814.501 30.935 813.811 31.15 813.051 31.15ZM813.021 30.115C813.611 30.115 814.131 29.95 814.581 29.62C815.041 29.28 815.401 28.795 815.661 28.165C815.921 27.525 816.051 26.745 816.051 25.825C816.051 24.915 815.921 24.145 815.661 23.515C815.401 22.875 815.041 22.39 814.581 22.06C814.131 21.73 813.611 21.565 813.021 21.565C812.441 21.565 811.921 21.73 811.461 22.06C811.011 22.39 810.656 22.87 810.396 23.5C810.136 24.13 810.006 24.905 810.006 25.825C810.006 26.745 810.136 27.525 810.396 28.165C810.656 28.795 811.011 29.28 811.461 29.62C811.921 29.95 812.441 30.115 813.021 30.115ZM818.47 30.325L822.295 26.335C822.735 25.865 823.075 25.47 823.315 25.15C823.565 24.83 823.735 24.54 823.825 24.28C823.925 24.01 823.975 23.73 823.975 23.44C823.975 22.85 823.79 22.39 823.42 22.06C823.05 21.72 822.56 21.55 821.95 21.55C821.39 21.55 820.9 21.685 820.48 21.955C820.06 22.215 819.685 22.61 819.355 23.14L818.59 22.465C818.99 21.835 819.47 21.355 820.03 21.025C820.59 20.695 821.24 20.53 821.98 20.53C822.6 20.53 823.14 20.65 823.6 20.89C824.07 21.13 824.43 21.47 824.68 21.91C824.94 22.35 825.07 22.865 825.07 23.455C825.07 23.865 825.015 24.24 824.905 24.58C824.795 24.91 824.6 25.26 824.32 25.63C824.05 25.99 823.665 26.43 823.165 26.95L819.925 30.28L818.47 30.325ZM818.47 31V30.325L819.37 30.01H825.325V31H818.47ZM829.721 31.15C829.041 31.15 828.431 31.02 827.891 30.76C827.351 30.5 826.896 30.125 826.526 29.635L827.261 28.9C827.511 29.28 827.846 29.58 828.266 29.8C828.696 30.01 829.176 30.115 829.706 30.115C830.206 30.115 830.646 30.02 831.026 29.83C831.406 29.63 831.701 29.355 831.911 29.005C832.131 28.645 832.241 28.225 832.241 27.745C832.241 27.255 832.136 26.835 831.926 26.485C831.716 26.125 831.431 25.85 831.071 25.66C830.711 25.47 830.306 25.375 829.856 25.375C829.426 25.375 829.031 25.435 828.671 25.555C828.321 25.665 828.001 25.845 827.711 26.095L827.681 25.375C827.861 25.175 828.066 25.01 828.296 24.88C828.526 24.75 828.781 24.65 829.061 24.58C829.351 24.51 829.671 24.475 830.021 24.475C830.711 24.475 831.306 24.625 831.806 24.925C832.306 25.215 832.686 25.61 832.946 26.11C833.216 26.61 833.351 27.175 833.351 27.805C833.351 28.455 833.196 29.03 832.886 29.53C832.576 30.03 832.146 30.425 831.596 30.715C831.056 31.005 830.431 31.15 829.721 31.15ZM827.711 26.095L827.126 25.495L827.576 20.68H828.581L828.086 25.6L827.711 26.095ZM827.846 21.655L827.576 20.68H832.886V21.655H827.846Z" fill="#696969"/>
<defs>
<linearGradient id="paint0_linear_399_138" x1="1207" y1="169" x2="749" y2="169" gradientUnits="userSpaceOnUse">
<stop stop-color="#636363" stop-opacity="0"/>
<stop offset="1" stop-color="#636363"/>
</linearGradient>
<linearGradient id="paint1_linear_399_138" x1="519" y1="166" x2="666.165" y2="166" gradientUnits="userSpaceOnUse">
<stop stop-color="#F1F1F1" stop-opacity="0"/>
<stop offset="1" stop-color="#F1F1F1"/>
</linearGradient>
</defs>
</svg>
